External Loads File
version=1
nRows=46
nColumns=13
Range=5.000000e-03-10 seconds
endheader
time 	forceRightX 	forceRightY 	forceRightZ 	pointRightX 	pointRightY 	pointRightZ 	forceLeftX 	forceLeftY 	forceLeftZ 	pointLeftX 	pointLeftY 	pointLeftZ 		
7.505000 82.911245 531.743470 -0.000000 0.315702 0.191116 -0.157630 -14.167316 -57.449747 -0.000000 0.139012 0.458843 -0.400034
7.510000 93.727739 511.611988 -0.000000 0.308235 0.184231 -0.157163 -19.825947 -56.665264 -0.000000 0.146299 0.466122 -0.399887
7.515000 102.881837 490.389790 -0.000000 0.300346 0.177882 -0.156729 -25.750876 -53.526469 -0.000000 0.153979 0.472790 -0.399429
7.520000 110.704496 468.484748 -0.000000 0.292040 0.172243 -0.156465 -31.768016 -47.884930 -0.000000 0.162132 0.478799 -0.399345
7.525000 117.451269 446.286578 -0.000000 0.283374 0.167207 -0.156207 -37.631833 -39.746144 -0.000000 0.170617 0.484245 -0.399234
7.530000 123.361711 424.134071 -0.000000 0.274304 0.162789 -0.155981 -43.057737 -29.258377 -0.000000 0.179289 0.489060 -0.399218
7.535000 128.429577 402.335735 -0.000000 0.264985 0.159080 -0.155817 -47.722583 -16.743643 -0.000000 0.188019 0.493220 -0.399222
7.540000 133.228299 380.866496 -0.000000 0.255456 0.155987 -0.155743 -51.334767 -2.653940 -0.000000 0.197044 0.496785 -0.399243
7.545000 137.395786 359.830451 -0.000000 0.245701 0.153448 -0.155758 -53.656505 12.264825 -0.000000 0.205841 0.499673 -0.399190
7.550000 141.301853 338.891581 -0.000000 0.235737 0.151730 -0.155693 -54.629233 27.366511 -0.000000 0.214653 0.501909 -0.399068
7.555000 144.590153 317.803845 -0.000000 0.225913 0.150709 -0.155857 -54.408698 42.175027 -0.000000 0.223388 0.503472 -0.399051
7.560000 147.251348 296.066164 -0.000000 0.216091 0.150410 -0.155967 -53.311335 56.711535 -0.000000 0.231910 0.504169 -0.399138
7.565000 149.114318 273.229828 -0.000000 0.206207 0.150769 -0.156046 -51.743213 71.377677 -0.000000 0.240144 0.504258 -0.399128
7.570000 149.806252 249.088928 -0.000000 0.196546 0.151760 -0.156090 -50.127439 86.742012 -0.000000 0.248174 0.503441 -0.399246
7.575000 149.048476 223.664385 -0.000000 0.187109 0.153508 -0.156063 -48.842760 103.385210 -0.000000 0.255884 0.501716 -0.399451
7.580000 146.494687 197.386135 -0.000000 0.177896 0.155947 -0.156125 -48.420661 121.752137 -0.000000 0.262875 0.499119 -0.399632
7.585000 142.492600 170.554385 -0.000000 0.168860 0.158953 -0.156561 -49.213044 142.313072 -0.000000 0.269652 0.495698 -0.400183
7.590000 137.171973 143.877780 -0.000000 0.160224 0.162648 -0.156759 -51.757633 165.378865 -0.000000 0.276229 0.491169 -0.400714
7.595000 130.786742 118.151890 -0.000000 0.151912 0.166990 -0.156993 -56.546293 191.122733 -0.000000 0.282592 0.485940 -0.401371
7.600000 123.623145 94.238488 -0.000000 0.144077 0.171921 -0.157036 -64.075996 219.420372 -0.000000 0.288633 0.480065 -0.401765
7.605000 116.285098 72.558528 -0.000000 0.136448 0.177316 -0.157032 -74.044373 249.963040 -0.000000 0.294813 0.473415 -0.402239
7.610000 109.075447 53.692713 -0.000000 0.129137 0.183286 -0.157024 -86.381234 281.933937 -0.000000 0.301000 0.466179 -0.402755
7.615000 102.311097 37.946079 -0.000000 0.122148 0.189741 -0.157057 -100.766847 314.248972 -0.000000 0.307100 0.458484 -0.403074
7.620000 96.261818 25.342139 -0.000000 0.115590 0.196717 -0.156994 -116.614565 345.758292 -0.000000 0.313284 0.450595 -0.402950
7.625000 91.082973 15.718634 -0.000000 0.109429 0.204079 -0.156827 -133.248965 375.373079 -0.000000 0.319425 0.442369 -0.402699
7.630000 86.806369 8.768889 -0.000000 0.103772 0.211795 -0.156604 -149.967107 402.166775 -0.000000 0.325525 0.433709 -0.402457
7.635000 83.367524 4.179216 -0.000000 0.098643 0.219924 -0.156439 -166.651861 425.276696 -0.000000 0.331145 0.424784 -0.402211
7.640000 80.675575 1.383024 -0.000000 0.093987 0.228329 -0.156174 -182.457400 444.542065 -0.000000 0.336783 0.415556 -0.402247
7.645000 78.604651 -0.005354 -0.000000 0.089922 0.237125 -0.156061 -197.743583 459.816271 -0.000000 0.341720 0.406090 -0.402268
7.650000 77.003598 -0.599043 -0.000000 0.086368 0.246239 -0.155895 -211.699092 471.872761 -0.000000 0.346505 0.396359 -0.402659
7.655000 75.676110 -0.896999 -0.000000 0.083369 0.255713 -0.155864 -223.811720 481.656747 -0.000000 0.351129 0.386238 -0.402303
7.660000 74.389089 -1.122781 -0.000000 0.080966 0.265415 -0.155921 -234.742096 489.627402 -0.000000 0.355075 0.376106 -0.402332
7.665000 72.879845 -1.626552 -0.000000 0.079195 0.275157 -0.155917 -243.901258 496.772451 -0.000000 0.358487 0.365692 -0.402409
7.670000 70.868310 -2.708356 -0.000000 0.077975 0.285249 -0.155998 -250.734714 504.047189 -0.000000 0.361424 0.355174 -0.402511
7.675000 68.076229 -4.520058 -0.000000 0.077369 0.295367 -0.156060 -255.542798 511.947920 -0.000000 0.363757 0.344454 -0.402372
7.680000 64.253038 -7.220032 -0.000000 0.077459 0.305645 -0.156139 -258.373124 521.015328 -0.000000 0.365494 0.333759 -0.402521
7.685000 59.192314 -10.968920 -0.000000 0.078033 0.316165 -0.156288 -258.594385 531.960239 -0.000000 0.366574 0.322946 -0.402564
7.690000 52.781037 -15.691569 -0.000000 0.079395 0.326791 -0.156503 -256.447271 544.804017 -0.000000 0.367016 0.312171 -0.402514
7.695000 45.022485 -21.254825 -0.000000 0.081327 0.337406 -0.156536 -251.705105 559.561363 -0.000000 0.366851 0.301362 -0.402530
7.700000 36.059657 -27.443328 -0.000000 0.083600 0.348121 -0.156878 -244.132534 576.080922 -0.000000 0.365923 0.290596 -0.402441
7.705000 26.192714 -33.955352 -0.000000 0.086494 0.358657 -0.157103 -234.255738 593.755678 -0.000000 0.364376 0.279968 -0.402324
7.710000 15.681039 -40.588885 -0.000000 0.089902 0.369787 -0.157336 -220.591814 612.599303 -0.000000 0.362203 0.269588 -0.402155
7.715000 5.038859 -47.069135 -0.000000 0.093885 0.379983 -0.157504 -205.335565 631.044837 -0.000000 0.359361 0.259280 -0.402012
7.720000 -5.438421 -53.314768 -0.000000 0.098272 0.390148 -0.157627 -187.262188 648.752535 -0.000000 0.355908 0.249362 -0.401823
7.725000 -15.444450 -59.229364 -0.000000 0.103089 0.400073 -0.157959 -166.448285 664.947346 -0.000000 0.351810 0.239669 -0.401653
7.730000 -24.757603 -64.746005 -0.000000 0.108376 0.409859 -0.158199 -143.375533 678.881970 -0.000000 0.347166 0.230361 -0.401463
